# xmcd
#
# Track frame offsets:
#	150
#	13090
#	27775
#	56467
#	81400
#	98530
#	127590
#	144372
#	169930
#	184787
#	203137
#	227615
#	256920
#	278207
#	297522
#	311765
#
# Disc length: 4369 seconds
#
# Revision: 1
# Processed by: cddbd v1.5.1PL0 Copyright (c) Steve Scherf et al.
# Submitted via: audiograbber 1.83.01
#
DISCID=d7110f10
DTITLE=Various Artist - Flamenco Gitana
DYEAR=1900
DGENRE=Dance
TTITLE0=Los Reyes - New Flamenco
TTITLE1=Los Reyes - Fuego
TTITLE2=Nina Corti Ensemble - Calle Larga
TTITLE3=Nina Corti Ensemble - Pajaritos
TTITLE4=Nina Corti Ensemble - Busco el quererte
TTITLE5=Nina Corti Ensemble - Tierra y mar
TTITLE6=Nina Corti Ensemble - Recuerdo a la guitarra
TTITLE7=Nina Corti Ensemble - A mi nino
TTITLE8=Nina Corti Ensemble - Cochecito de caballos
TTITLE9=Nina Corti Ensemble - Fantasia
TTITLE10=Nina Corti Ensemble - Siguiriyas
TTITLE11=Nina Corti Ensemble - Taranto
TTITLE12=Nina Corti Ensemble - Granaina
TTITLE13=Fete Gitana - Gitano Flamenco
TTITLE14=Fete Gitana - Go flamenco
TTITLE15=Fete Gitana - Carnaval
EXTD=
EXTT0=
EXTT1=
EXTT2=
EXTT3=
EXTT4=
EXTT5=
EXTT6=
EXTT7=
EXTT8=
EXTT9=
EXTT10=
EXTT11=
EXTT12=
EXTT13=
EXTT14=
EXTT15=
PLAYORDER=
